<?xml version="1.0" standalone="no"?>
<!DOCTYPE svg PUBLIC "-//W3C//DTD SVG 20010904//EN"
 "http://www.w3.org/TR/2001/REC-SVG-20010904/DTD/svg10.dtd">
<svg version="1.0" xmlns="http://www.w3.org/2000/svg"
 width="16.000000pt" height="16.000000pt" viewBox="0 0 16.000000 16.000000"
 preserveAspectRatio="xMidYMid meet">
<metadata>
Created by potrace 1.11, written by Peter Selinger 2001-2013
</metadata>
<g transform="translate(0.000000,16.000000) scale(0.006154,-0.006154)"
fill="#000000" stroke="none">
<path d="M1637 2028 c-9 -5 -37 -46 -62 -93 -26 -48 -51 -82 -58 -80 -7 3 -23
7 -37 9 -14 3 -77 16 -140 31 -63 14 -146 32 -185 41 -38 8 -77 17 -85 19
-113 27 -142 27 -168 2 -11 -12 -36 -106 -57 -217 -3 -14 -9 -38 -13 -55 l-8
-30 -349 -2 -349 -2 -24 -25 -25 -24 1 -509 c0 -279 1 -520 1 -534 1 -32 29
-69 56 -74 11 -2 20 -4 20 -5 0 -1 70 -2 155 -3 85 -1 161 -6 169 -11 9 -6 12
-5 8 1 -4 6 108 9 313 9 200 0 317 -4 313 -10 -4 -5 -1 -6 8 0 8 5 121 9 252
10 161 1 245 5 260 13 27 14 62 71 44 71 -8 0 -8 3 -2 8 12 9 13 82 1 82 -5 0
-3 6 3 14 8 9 8 16 2 20 -6 4 -7 15 -1 30 5 13 5 27 0 32 -5 5 -2 17 6 28 7
11 17 17 20 13 4 -4 1 -15 -7 -24 -13 -17 -13 -17 7 0 17 14 31 16 63 11 22
-4 41 -11 41 -16 0 -5 3 -7 8 -4 4 2 41 -2 81 -11 61 -12 78 -13 100 -2 14 7
29 13 33 13 3 1 10 5 15 10 5 6 2 6 -6 1 -11 -6 -13 -4 -7 10 3 10 9 34 12 54
3 20 9 37 14 39 4 2 5 12 2 24 -3 14 -1 19 6 14 8 -5 10 -2 6 8 -4 11 0 16 11
16 9 0 13 -5 9 -11 -4 -7 -1 -10 7 -7 8 3 27 -1 43 -9 18 -9 38 -12 55 -7 14
4 30 6 34 5 5 -1 6 3 3 8 -4 5 -1 15 6 23 7 7 13 20 13 28 0 8 6 14 13 12 8
-1 11 2 8 7 -7 11 58 140 78 156 7 6 11 15 9 22 -2 6 4 20 15 31 10 10 16 24
14 32 -3 8 0 10 8 5 9 -5 11 -4 6 4 -4 6 0 18 8 27 9 8 16 22 16 30 0 8 5 14
11 14 5 0 7 5 4 10 -3 6 -1 10 4 10 6 0 10 3 9 8 -3 13 45 101 53 96 4 -2 11
1 15 7 4 8 3 9 -4 5 -18 -11 -14 10 5 29 9 10 17 34 17 58 1 45 2 44 -174 139
-320 172 -495 266 -560 301 -41 22 -84 45 -95 52 -31 18 -60 23 -78 13z"/>
<path d="M2025 720 c-3 -6 1 -7 9 -4 18 7 21 14 7 14 -6 0 -13 -4 -16 -10z"/>
</g>
</svg>
